:SAMPLES-PER-SECOND 30
:FULLY-SPECIFIED
:DEGREES
103
root  -41.201 39.4149 3.14383 -3.30226 -0.940048 -1.74052
RightUpLeg  -7.56104 -10.9946 -10.1921
RightLeg  60.6564 0.58906 0.542089
RightFoot  17.5221 -1.57665 6.60608
RightToes  -5.8209e-011 0 -3.6325e-017
Spine  7.84766 2.06516 1.54015
Spine1  4.8941 3.14029 -5.12864
HEad  -8.7269 28.9322 -9.24583
LeftShoulder1  6.43842 -9.16729 -44.2166
LeftArm  -13.4697 24.4019 -28.5557
LeftForeArm  21.1274 -14.56 -3.90392
LeftHand  -0.244104 0.0205437 5.32207
RightShoulder  6.35929 9.74226 41.761
RightArm  -3.2486 -17.2023 32.5999
RightForeArm  12.1953 11.9737 6.63113
RightHand  -0.461418 -1.07797 -12.3604
LeftUpLeg  -8.66101 6.36529 -10.7537
LeftLeg  15.0146 35.556 1.67848
LeftFoot  -12.8186 0.265219 14.4669
LeftToes  1.76439e-010 -1.07097e-011 2.32476e-011
104
root  -41.2629 39.5638 3.95307 -3.25423 4.82906 -2.18097
RightUpLeg  -11.5592 -7.82703 -9.59098
RightLeg  61.988 -0.101497 -0.743573
RightFoot  14.4355 -1.36004 6.36521
RightToes  -5.8209e-011 0 -3.6325e-017
Spine  8.09279 1.23027 1.00802
Spine1  4.95321 1.88269 -3.61265
HEad  -9.11163 28.3482 -10.531
LeftShoulder1  6.52302 -9.18908 -44.7443
LeftArm  -11.5997 22.1258 -29.5064
LeftForeArm  22.6544 -17.9705 -3.80787
LeftHand  -0.244104 0.0205437 5.32207
RightShoulder  6.26522 9.53031 41.8154
RightArm  -3.35393 -19.4309 31.6772
RightForeArm  13.2816 11.9142 6.52463
RightHand  -0.472908 -0.972866 -12.3797
LeftUpLeg  -6.44494 4.13806 -10.8325
LeftLeg  13.959 32.2409 0.920471
LeftFoot  -12.9693 0.271345 13.5212
LeftToes  1.76439e-010 -1.07097e-011 2.32476e-011
105
root  -41.2843 39.7256 4.737 -3.21146 11.0057 -3.06706
RightUpLeg  -15.0625 -5.46454 -8.6622
RightLeg  60.7201 -2.17798 -4.68423
RightFoot  12.449 -0.637125 3.41483
RightToes  -5.8209e-011 0 -3.6325e-017
Spine  8.38084 0.33802 0.910123
Spine1  4.75769 0.589656 -2.06157
HEad  -9.18891 27.2788 -11.0252
LeftShoulder1  6.63555 -9.33233 -45.0215
LeftArm  -9.90164 20.2244 -30.6815
LeftForeArm  24.7779 -22.0333 -3.65991
LeftHand  -0.244104 0.0205437 5.32207
RightShoulder  6.1185 9.31487 41.4998
RightArm  -3.93507 -21.6802 31.2621
RightForeArm  13.8653 11.9762 6.3495
RightHand  -0.461968 -0.967943 -12.0779
LeftUpLeg  -4.21684 2.7874 -10.3303
LeftLeg  12.6483 27.4549 -0.179119
LeftFoot  -13.2059 0.293362 13.0593
LeftToes  1.76439e-010 -1.07097e-011 2.32476e-011
106
root  -41.258 39.9014 5.50964 -3.29865 17.1508 -4.24452
RightUpLeg  -17.967 -3.92092 -7.54801
RightLeg  57.1429 -4.38781 -7.7189
RightFoot  10.3941 0.170195 -0.509687
RightToes  -5.8209e-011 0 -3.6325e-017
Spine  8.68432 -0.511886 1.25392
Spine1  4.567 -0.588837 -0.536922
HEad  -9.36691 25.8654 -11.1663
LeftShoulder1  6.76782 -9.49594 -45.3551
LeftArm  -9.26254 18.4455 -31.6347
LeftForeArm  27.4331 -26.2096 -4.13662
LeftHand  -0.244104 0.0205437 5.32207
RightShoulder  5.91328 9.0636 40.8624
RightArm  -5.02298 -23.462 31.4465
RightForeArm  13.2571 11.7829 6.23964
RightHand  -0.444408 -1.23079 -12.3298
LeftUpLeg  -2.07113 2.08966 -9.34667
LeftLeg  11.2841 21.9707 -1.13493
LeftFoot  -13.3326 0.31041 13.165
LeftToes  1.76439e-010 -1.07097e-011 2.32476e-011
107
root  -41.1939 40.0674 6.27888 -3.7973 23.0671 -5.5374
RightUpLeg  -19.7772 -3.44284 -6.64809
RightLeg  51.1723 -6.08695 -8.42109
RightFoot  7.54524 0.17825 -0.708239
RightToes  -5.8209e-011 0 -3.6325e-017
Spine  9.20548 -1.22149 1.8013
Spine1  4.53761 -1.58514 0.957401
HEad  -9.89039 24.2324 -11.1832
LeftShoulder1  6.95309 -9.70224 -45.8886
LeftArm  -8.3906 16.4351 -32.1789
LeftForeArm  29.2516 -29.706 -4.84135
LeftHand  -0.244104 0.0205437 5.32207
RightShoulder  5.70956 8.78536 40.3048
RightArm  -6.22905 -24.3826 31.5269
RightForeArm  12.4668 11.1753 6.18128
RightHand  -0.436213 -1.57379 -13.1424
LeftUpLeg  0.0391552 1.85527 -8.0913
LeftLeg  10.3507 16.1009 -1.57513
LeftFoot  -13.3145 0.304764 12.9757
LeftToes  1.76439e-010 -1.07097e-011 2.32476e-011
108
root  -41.104 40.1404 7.08357 -4.57713 28.1201 -6.51247
RightUpLeg  -20.6649 -3.58824 -6.07278
RightLeg  43.2039 -7.00541 -7.29015
RightFoot  5.62883 -0.224088 1.7405
RightToes  -5.8209e-011 0 -3.6325e-017
Spine  9.8171 -1.51089 2.17689
Spine1  4.7069 -2.06595 1.92971
HEad  -10.5872 22.5084 -10.9701
LeftShoulder1  7.17619 -10.0064 -46.3115
LeftArm  -7.09996 14.2886 -32.5993
LeftForeArm  30.2552 -32.0394 -5.3346
LeftHand  -0.244104 0.0205437 5.32207
RightShoulder  5.63939 8.68576 40.1187
RightArm  -7.22028 -24.6 30.9125
RightForeArm  12.7963 10.1536 6.08735
RightHand  -0.433567 -1.65432 -13.3382
LeftUpLeg  1.89385 1.85595 -6.98161
LeftLeg  10.4684 10.8569 -1.54784
LeftFoot  -13.8404 0.354536 12.3876
LeftToes  1.76439e-010 -1.07097e-011 2.32476e-011
109
root  -40.9557 40.1274 7.96608 -5.00536 31.7903 -6.9118
RightUpLeg  -21.1948 -4.23454 -5.4254
RightLeg  33.6393 -6.64807 -5.0148
RightFoot  5.2184 -0.393432 2.94278
RightToes  -5.8209e-011 0 -3.6325e-017
Spine  9.95072 -1.31215 2.28266
Spine1  5.04529 -1.91593 2.2837
HEad  -11.1137 20.9896 -10.4486
LeftShoulder1  7.34384 -10.31 -46.3565
LeftArm  -6.0632 12.5061 -33.1429
LeftForeArm  31.0661 -33.4692 -5.6397
LeftHand  -0.244104 0.0205437 5.32207
RightShoulder  5.74087 8.89217 40.1645
RightArm  -7.74226 -24.3393 29.8083
RightForeArm  13.7833 8.80646 5.96429
RightHand  -0.4282 -1.54679 -12.811
LeftUpLeg  3.45364 2.00513 -6.1734
LeftLeg  10.9229 7.13568 -1.61615
LeftFoot  -14.9493 0.473628 12.1128
LeftToes  1.76439e-010 -1.07097e-011 2.32476e-011
110
root  -40.7234 40.0906 8.90446 -4.87625 34.4914 -6.95268
RightUpLeg  -21.4599 -6.75331 -4.13496
RightLeg  22.6664 -3.58303 -1.99759
RightFoot  5.24204 -0.579837 4.22108
RightToes  -5.8209e-011 0 -3.6325e-017
Spine  9.56558 -0.995069 2.25503
Spine1  5.33409 -1.58667 2.48851
HEad  -11.3693 20.0449 -9.82741
LeftShoulder1  7.3904 -10.4532 -46.1674
LeftArm  -5.47689 11.4331 -33.5691
LeftForeArm  31.7727 -34.5104 -5.86153
LeftHand  -0.244104 0.0205437 5.32207
RightShoulder  5.87971 9.19441 40.1567
RightArm  -7.66783 -23.4681 28.7462
RightForeArm  13.8656 7.31284 5.8912
RightHand  -0.418321 -1.67171 -12.9296
LeftUpLeg  4.87125 2.33687 -5.42248
LeftLeg  10.9474 4.36621 -1.97922
LeftFoot  -15.9834 0.594146 12.2266
LeftToes  1.76439e-010 -1.07097e-011 2.32476e-011
111
root  -40.415 40.0012 9.88103 -4.74702 37.0509 -6.91313
RightUpLeg  -20.8893 -9.85753 -3.01273
RightLeg  11.4262 0.0284459 1.06239
RightFoot  5.03271 -1.11476 7.98606
RightToes  -5.8209e-011 0 -3.6325e-017
Spine  9.28102 -0.955049 2.1655
Spine1  5.35569 -1.53621 2.68733
HEad  -11.5248 19.7075 -9.47729
LeftShoulder1  7.36485 -10.4446 -46.0324
LeftArm  -5.10363 10.9434 -33.497
LeftForeArm  32.1545 -35.1635 -6.00645
LeftHand  -0.244104 0.0205437 5.32207
RightShoulder  5.93081 9.32812 40.0768
RightArm  -7.40031 -21.8346 27.862
RightForeArm  12.8154 5.89131 5.87545
RightHand  -0.419661 -1.99645 -14.1603
LeftUpLeg  6.35239 2.86773 -4.55701
LeftLeg  11.1712 1.3718 -2.40046
LeftFoot  -17.082 0.718451 12.2267
LeftToes  1.76439e-010 -1.07097e-011 2.32476e-011
112
root  -40.025 39.8298 10.9051 -5.12187 39.6889 -6.92223
RightUpLeg  -19.2699 -7.1954 -4.36311
RightLeg  2.61434 -3.02473 4.07614
RightFoot  4.28957 -1.52448 11.2842
RightToes  -5.8209e-011 0 -3.6325e-017
Spine  9.37073 -1.18532 2.18325
Spine1  5.31701 -1.75128 2.79614
HEad  -11.4307 19.2139 -9.40928
LeftShoulder1  7.355 -10.4353 -46.0002
LeftArm  -4.83394 10.7255 -32.9934
LeftForeArm  31.9423 -34.8931 -5.94957
LeftHand  -0.244104 0.0205437 5.32207
RightShoulder  5.91323 9.31045 40.0074
RightArm  -7.53968 -19.6869 27.0554
RightForeArm  11.726 4.79887 5.82141
RightHand  -0.453307 -1.99526 -15.317
LeftUpLeg  8.22556 3.43694 -3.6559
LeftLeg  11.9294 -1.86537 -2.58528
LeftFoot  -18.6586 0.876392 11.9055
LeftToes  1.76439e-010 -1.07097e-011 2.32476e-011
